<?xml version="1.0" encoding="UTF-8"?>
<svg width="674px" height="233px" viewBox="0 0 674 233" version="1.1" xmlns="http://www.w3.org/2000/svg" xmlns:xlink="http://www.w3.org/1999/xlink">
    <!-- Generator: Sketch 49.2 (51160) - http://www.bohemiancoding.com/sketch -->
    <title>Group</title>
    <desc>Created with Sketch.</desc>
    <defs></defs>
    <g id="Page-1" stroke="none" stroke-width="1" fill="none" fill-rule="evenodd">
        <g id="Mobile" transform="translate(-88.000000, -185.000000)">
            <g id="Group" transform="translate(88.000000, 185.000000)">
                <text id="Use-your-phone,-plea" font-family="Lato-Hairline, Lato" font-size="36" font-weight="200" fill="#000000">
                    <tspan x="257" y="86">Use your phone, please:</tspan>
                    <tspan x="257" y="130" font-family="Lato-Black, Lato" font-weight="700">xmas.mostlypainless.com</tspan>
                    <tspan x="257" y="174" font-family="Lato-LightItalic, Lato" font-size="14" font-style="italic" font-weight="300">You have found the terrifically terrifying companion webapp to the</tspan>
                    <tspan x="257" y="191" font-family="Lato-LightItalic, Lato" font-size="14" font-style="italic" font-weight="300">HEATR connected kitchen appliance, part of the internet of booze</tspan>
                    <tspan x="257" y="208" font-family="Lato-LightItalic, Lato" font-size="14" font-style="italic" font-weight="300">project, run by @mostlypainless and @imbamcduffs.</tspan>
                    <tspan x="257" y="225" font-family="Lato-LightItalic, Lato" font-size="14" font-style="italic" font-weight="300">This app is intended to run on mobile devices, so please, grab your phone!</tspan>
                </text>
                <g id="qrcode" fill-rule="nonzero">
                    <rect id="Rectangle-path" fill="#FFFFFF" x="0" y="0" width="233" height="233"></rect>
                    <g id="elements" transform="translate(9.000000, 9.000000)" fill="#000000">
                        <path d="M0,0 L8.64,0 L8.64,8.64 L0,8.64 L0,0 Z M8.64,0 L17.28,0 L17.28,8.64 L8.64,8.64 L8.64,0 Z M17.28,0 L25.92,0 L25.92,8.64 L17.28,8.64 L17.28,0 Z M25.92,0 L34.56,0 L34.56,8.64 L25.92,8.64 L25.92,0 Z M34.56,0 L43.2,0 L43.2,8.64 L34.56,8.64 L34.56,0 Z M43.2,0 L51.84,0 L51.84,8.64 L43.2,8.64 L43.2,0 Z M51.84,0 L60.48,0 L60.48,8.64 L51.84,8.64 L51.84,0 Z M95.04,0 L103.68,0 L103.68,8.64 L95.04,8.64 L95.04,0 Z M112.32,0 L120.96,0 L120.96,8.64 L112.32,8.64 L112.32,0 Z M120.96,0 L129.6,0 L129.6,8.64 L120.96,8.64 L120.96,0 Z M138.24,0 L146.88,0 L146.88,8.64 L138.24,8.64 L138.24,0 Z M155.52,0 L164.16,0 L164.16,8.64 L155.52,8.64 L155.52,0 Z M164.16,0 L172.8,0 L172.8,8.64 L164.16,8.64 L164.16,0 Z M172.8,0 L181.44,0 L181.44,8.64 L172.8,8.64 L172.8,0 Z M181.44,0 L190.08,0 L190.08,8.64 L181.44,8.64 L181.44,0 Z M190.08,0 L198.72,0 L198.72,8.64 L190.08,8.64 L190.08,0 Z M198.72,0 L207.36,0 L207.36,8.64 L198.72,8.64 L198.72,0 Z M207.36,0 L216,0 L216,8.64 L207.36,8.64 L207.36,0 Z M0,8.64 L8.64,8.64 L8.64,17.28 L0,17.28 L0,8.64 Z M51.84,8.64 L60.48,8.64 L60.48,17.28 L51.84,17.28 L51.84,8.64 Z M69.12,8.64 L77.76,8.64 L77.76,17.28 L69.12,17.28 L69.12,8.64 Z M77.76,8.64 L86.4,8.64 L86.4,17.28 L77.76,17.28 L77.76,8.64 Z M86.4,8.64 L95.04,8.64 L95.04,17.28 L86.4,17.28 L86.4,8.64 Z M129.6,8.64 L138.24,8.64 L138.24,17.28 L129.6,17.28 L129.6,8.64 Z M155.52,8.64 L164.16,8.64 L164.16,17.28 L155.52,17.28 L155.52,8.64 Z M207.36,8.64 L216,8.64 L216,17.28 L207.36,17.28 L207.36,8.64 Z M0,17.28 L8.64,17.28 L8.64,25.92 L0,25.92 L0,17.28 Z M17.28,17.28 L25.92,17.28 L25.92,25.92 L17.28,25.92 L17.28,17.28 Z M25.92,17.28 L34.56,17.28 L34.56,25.92 L25.92,25.92 L25.92,17.28 Z M34.56,17.28 L43.2,17.28 L43.2,25.92 L34.56,25.92 L34.56,17.28 Z M51.84,17.28 L60.48,17.28 L60.48,25.92 L51.84,25.92 L51.84,17.28 Z M77.76,17.28 L86.4,17.28 L86.4,25.92 L77.76,25.92 L77.76,17.28 Z M86.4,17.28 L95.04,17.28 L95.04,25.92 L86.4,25.92 L86.4,17.28 Z M95.04,17.28 L103.68,17.28 L103.68,25.92 L95.04,25.92 L95.04,17.28 Z M120.96,17.28 L129.6,17.28 L129.6,25.92 L120.96,25.92 L120.96,17.28 Z M129.6,17.28 L138.24,17.28 L138.24,25.92 L129.6,25.92 L129.6,17.28 Z M138.24,17.28 L146.88,17.28 L146.88,25.92 L138.24,25.92 L138.24,17.28 Z M155.52,17.28 L164.16,17.28 L164.16,25.92 L155.52,25.92 L155.52,17.28 Z M172.8,17.28 L181.44,17.28 L181.44,25.92 L172.8,25.92 L172.8,17.28 Z M181.44,17.28 L190.08,17.28 L190.08,25.92 L181.44,25.92 L181.44,17.28 Z M190.08,17.28 L198.72,17.28 L198.72,25.92 L190.08,25.92 L190.08,17.28 Z M207.36,17.28 L216,17.28 L216,25.92 L207.36,25.92 L207.36,17.28 Z M0,25.92 L8.64,25.92 L8.64,34.56 L0,34.56 L0,25.92 Z M17.28,25.92 L25.92,25.92 L25.92,34.56 L17.28,34.56 L17.28,25.92 Z M25.92,25.92 L34.56,25.92 L34.56,34.56 L25.92,34.56 L25.92,25.92 Z M34.56,25.92 L43.2,25.92 L43.2,34.56 L34.56,34.56 L34.56,25.92 Z M51.84,25.92 L60.48,25.92 L60.48,34.56 L51.84,34.56 L51.84,25.92 Z M69.12,25.92 L77.76,25.92 L77.76,34.56 L69.12,34.56 L69.12,25.92 Z M95.04,25.92 L103.68,25.92 L103.68,34.56 L95.04,34.56 L95.04,25.92 Z M103.68,25.92 L112.32,25.92 L112.32,34.56 L103.68,34.56 L103.68,25.92 Z M112.32,25.92 L120.96,25.92 L120.96,34.56 L112.32,34.56 L112.32,25.92 Z M120.96,25.92 L129.6,25.92 L129.6,34.56 L120.96,34.56 L120.96,25.92 Z M155.52,25.92 L164.16,25.92 L164.16,34.56 L155.52,34.56 L155.52,25.92 Z M172.8,25.92 L181.44,25.92 L181.44,34.56 L172.8,34.56 L172.8,25.92 Z M181.44,25.92 L190.08,25.92 L190.08,34.56 L181.44,34.56 L181.44,25.92 Z M190.08,25.92 L198.72,25.92 L198.72,34.56 L190.08,34.56 L190.08,25.92 Z M207.36,25.92 L216,25.92 L216,34.56 L207.36,34.56 L207.36,25.92 Z M0,34.56 L8.64,34.56 L8.64,43.2 L0,43.2 L0,34.56 Z M17.28,34.56 L25.92,34.56 L25.92,43.2 L17.28,43.2 L17.28,34.56 Z M25.92,34.56 L34.56,34.56 L34.56,43.2 L25.92,43.2 L25.92,34.56 Z M34.56,34.56 L43.2,34.56 L43.2,43.2 L34.56,43.2 L34.56,34.56 Z M51.84,34.56 L60.48,34.56 L60.48,43.2 L51.84,43.2 L51.84,34.56 Z M95.04,34.56 L103.68,34.56 L103.68,43.2 L95.04,43.2 L95.04,34.56 Z M120.96,34.56 L129.6,34.56 L129.6,43.2 L120.96,43.2 L120.96,34.56 Z M138.24,34.56 L146.88,34.56 L146.88,43.2 L138.24,43.2 L138.24,34.56 Z M155.52,34.56 L164.16,34.56 L164.16,43.2 L155.52,43.2 L155.52,34.56 Z M172.8,34.56 L181.44,34.56 L181.44,43.2 L172.8,43.2 L172.8,34.56 Z M181.44,34.56 L190.08,34.56 L190.08,43.2 L181.44,43.2 L181.44,34.56 Z M190.08,34.56 L198.72,34.56 L198.72,43.2 L190.08,43.2 L190.08,34.56 Z M207.36,34.56 L216,34.56 L216,43.2 L207.36,43.2 L207.36,34.56 Z M0,43.2 L8.64,43.2 L8.64,51.84 L0,51.84 L0,43.2 Z M51.84,43.2 L60.48,43.2 L60.48,51.84 L51.84,51.84 L51.84,43.2 Z M69.12,43.2 L77.76,43.2 L77.76,51.84 L69.12,51.84 L69.12,43.2 Z M86.4,43.2 L95.04,43.2 L95.04,51.84 L86.4,51.84 L86.4,43.2 Z M129.6,43.2 L138.24,43.2 L138.24,51.84 L129.6,51.84 L129.6,43.2 Z M155.52,43.2 L164.16,43.2 L164.16,51.84 L155.52,51.84 L155.52,43.2 Z M207.36,43.2 L216,43.2 L216,51.84 L207.36,51.84 L207.36,43.2 Z M0,51.84 L8.64,51.84 L8.64,60.48 L0,60.48 L0,51.84 Z M8.64,51.84 L17.28,51.84 L17.28,60.48 L8.64,60.48 L8.64,51.84 Z M17.28,51.84 L25.92,51.84 L25.92,60.48 L17.28,60.48 L17.28,51.84 Z M25.92,51.84 L34.56,51.84 L34.56,60.48 L25.92,60.48 L25.92,51.84 Z M34.56,51.84 L43.2,51.84 L43.2,60.48 L34.56,60.48 L34.56,51.84 Z M43.2,51.84 L51.84,51.84 L51.84,60.48 L43.2,60.48 L43.2,51.84 Z M51.84,51.84 L60.48,51.84 L60.48,60.48 L51.84,60.48 L51.84,51.84 Z M69.12,51.84 L77.76,51.84 L77.76,60.48 L69.12,60.48 L69.12,51.84 Z M86.4,51.84 L95.04,51.84 L95.04,60.48 L86.4,60.48 L86.4,51.84 Z M103.68,51.84 L112.32,51.84 L112.32,60.48 L103.68,60.48 L103.68,51.84 Z M120.96,51.84 L129.6,51.84 L129.6,60.48 L120.96,60.48 L120.96,51.84 Z M138.24,51.84 L146.88,51.84 L146.88,60.48 L138.24,60.48 L138.24,51.84 Z M155.52,51.84 L164.16,51.84 L164.16,60.48 L155.52,60.48 L155.52,51.84 Z M164.16,51.84 L172.8,51.84 L172.8,60.48 L164.16,60.48 L164.16,51.84 Z M172.8,51.84 L181.44,51.84 L181.44,60.48 L172.8,60.48 L172.8,51.84 Z M181.44,51.84 L190.08,51.84 L190.08,60.48 L181.44,60.48 L181.44,51.84 Z M190.08,51.84 L198.72,51.84 L198.72,60.48 L190.08,60.48 L190.08,51.84 Z M198.72,51.84 L207.36,51.84 L207.36,60.48 L198.72,60.48 L198.72,51.84 Z M207.36,51.84 L216,51.84 L216,60.48 L207.36,60.48 L207.36,51.84 Z M77.76,60.48 L86.4,60.48 L86.4,69.12 L77.76,69.12 L77.76,60.48 Z M86.4,60.48 L95.04,60.48 L95.04,69.12 L86.4,69.12 L86.4,60.48 Z M95.04,60.48 L103.68,60.48 L103.68,69.12 L95.04,69.12 L95.04,60.48 Z M103.68,60.48 L112.32,60.48 L112.32,69.12 L103.68,69.12 L103.68,60.48 Z M129.6,60.48 L138.24,60.48 L138.24,69.12 L129.6,69.12 L129.6,60.48 Z M138.24,60.48 L146.88,60.48 L146.88,69.12 L138.24,69.12 L138.24,60.48 Z M0,69.12 L8.64,69.12 L8.64,77.76 L0,77.76 L0,69.12 Z M8.64,69.12 L17.28,69.12 L17.28,77.76 L8.64,77.76 L8.64,69.12 Z M17.28,69.12 L25.92,69.12 L25.92,77.76 L17.28,77.76 L17.28,69.12 Z M25.92,69.12 L34.56,69.12 L34.56,77.76 L25.92,77.76 L25.92,69.12 Z M34.56,69.12 L43.2,69.12 L43.2,77.76 L34.56,77.76 L34.56,69.12 Z M51.84,69.12 L60.48,69.12 L60.48,77.76 L51.84,77.76 L51.84,69.12 Z M60.48,69.12 L69.12,69.12 L69.12,77.76 L60.48,77.76 L60.48,69.12 Z M69.12,69.12 L77.76,69.12 L77.76,77.76 L69.12,77.76 L69.12,69.12 Z M77.76,69.12 L86.4,69.12 L86.4,77.76 L77.76,77.76 L77.76,69.12 Z M103.68,69.12 L112.32,69.12 L112.32,77.76 L103.68,77.76 L103.68,69.12 Z M112.32,69.12 L120.96,69.12 L120.96,77.76 L112.32,77.76 L112.32,69.12 Z M120.96,69.12 L129.6,69.12 L129.6,77.76 L120.96,77.76 L120.96,69.12 Z M129.6,69.12 L138.24,69.12 L138.24,77.76 L129.6,77.76 L129.6,69.12 Z M138.24,69.12 L146.88,69.12 L146.88,77.76 L138.24,77.76 L138.24,69.12 Z M146.88,69.12 L155.52,69.12 L155.52,77.76 L146.88,77.76 L146.88,69.12 Z M164.16,69.12 L172.8,69.12 L172.8,77.76 L164.16,77.76 L164.16,69.12 Z M181.44,69.12 L190.08,69.12 L190.08,77.76 L181.44,77.76 L181.44,69.12 Z M198.72,69.12 L207.36,69.12 L207.36,77.76 L198.72,77.76 L198.72,69.12 Z M8.64,77.76 L17.28,77.76 L17.28,86.4 L8.64,86.4 L8.64,77.76 Z M17.28,77.76 L25.92,77.76 L25.92,86.4 L17.28,86.4 L17.28,77.76 Z M25.92,77.76 L34.56,77.76 L34.56,86.4 L25.92,86.4 L25.92,77.76 Z M95.04,77.76 L103.68,77.76 L103.68,86.4 L95.04,86.4 L95.04,77.76 Z M138.24,77.76 L146.88,77.76 L146.88,86.4 L138.24,86.4 L138.24,77.76 Z M164.16,77.76 L172.8,77.76 L172.8,86.4 L164.16,86.4 L164.16,77.76 Z M198.72,77.76 L207.36,77.76 L207.36,86.4 L198.72,86.4 L198.72,77.76 Z M8.64,86.4 L17.28,86.4 L17.28,95.04 L8.64,95.04 L8.64,86.4 Z M17.28,86.4 L25.92,86.4 L25.92,95.04 L17.28,95.04 L17.28,86.4 Z M34.56,86.4 L43.2,86.4 L43.2,95.04 L34.56,95.04 L34.56,86.4 Z M51.84,86.4 L60.48,86.4 L60.48,95.04 L51.84,95.04 L51.84,86.4 Z M60.48,86.4 L69.12,86.4 L69.12,95.04 L60.48,95.04 L60.48,86.4 Z M69.12,86.4 L77.76,86.4 L77.76,95.04 L69.12,95.04 L69.12,86.4 Z M86.4,86.4 L95.04,86.4 L95.04,95.04 L86.4,95.04 L86.4,86.4 Z M103.68,86.4 L112.32,86.4 L112.32,95.04 L103.68,95.04 L103.68,86.4 Z M129.6,86.4 L138.24,86.4 L138.24,95.04 L129.6,95.04 L129.6,86.4 Z M138.24,86.4 L146.88,86.4 L146.88,95.04 L138.24,95.04 L138.24,86.4 Z M155.52,86.4 L164.16,86.4 L164.16,95.04 L155.52,95.04 L155.52,86.4 Z M164.16,86.4 L172.8,86.4 L172.8,95.04 L164.16,95.04 L164.16,86.4 Z M181.44,86.4 L190.08,86.4 L190.08,95.04 L181.44,95.04 L181.44,86.4 Z M198.72,86.4 L207.36,86.4 L207.36,95.04 L198.72,95.04 L198.72,86.4 Z M207.36,86.4 L216,86.4 L216,95.04 L207.36,95.04 L207.36,86.4 Z M8.64,95.04 L17.28,95.04 L17.28,103.68 L8.64,103.68 L8.64,95.04 Z M43.2,95.04 L51.84,95.04 L51.84,103.68 L43.2,103.68 L43.2,95.04 Z M69.12,95.04 L77.76,95.04 L77.76,103.68 L69.12,103.68 L69.12,95.04 Z M95.04,95.04 L103.68,95.04 L103.68,103.68 L95.04,103.68 L95.04,95.04 Z M120.96,95.04 L129.6,95.04 L129.6,103.68 L120.96,103.68 L120.96,95.04 Z M146.88,95.04 L155.52,95.04 L155.52,103.68 L146.88,103.68 L146.88,95.04 Z M155.52,95.04 L164.16,95.04 L164.16,103.68 L155.52,103.68 L155.52,95.04 Z M164.16,95.04 L172.8,95.04 L172.8,103.68 L164.16,103.68 L164.16,95.04 Z M172.8,95.04 L181.44,95.04 L181.44,103.68 L172.8,103.68 L172.8,95.04 Z M207.36,95.04 L216,95.04 L216,103.68 L207.36,103.68 L207.36,95.04 Z M0,103.68 L8.64,103.68 L8.64,112.32 L0,112.32 L0,103.68 Z M34.56,103.68 L43.2,103.68 L43.2,112.32 L34.56,112.32 L34.56,103.68 Z M43.2,103.68 L51.84,103.68 L51.84,112.32 L43.2,112.32 L43.2,103.68 Z M51.84,103.68 L60.48,103.68 L60.48,112.32 L51.84,112.32 L51.84,103.68 Z M60.48,103.68 L69.12,103.68 L69.12,112.32 L60.48,112.32 L60.48,103.68 Z M77.76,103.68 L86.4,103.68 L86.4,112.32 L77.76,112.32 L77.76,103.68 Z M86.4,103.68 L95.04,103.68 L95.04,112.32 L86.4,112.32 L86.4,103.68 Z M95.04,103.68 L103.68,103.68 L103.68,112.32 L95.04,112.32 L95.04,103.68 Z M103.68,103.68 L112.32,103.68 L112.32,112.32 L103.68,112.32 L103.68,103.68 Z M112.32,103.68 L120.96,103.68 L120.96,112.32 L112.32,112.32 L112.32,103.68 Z M120.96,103.68 L129.6,103.68 L129.6,112.32 L120.96,112.32 L120.96,103.68 Z M129.6,103.68 L138.24,103.68 L138.24,112.32 L129.6,112.32 L129.6,103.68 Z M138.24,103.68 L146.88,103.68 L146.88,112.32 L138.24,112.32 L138.24,103.68 Z M146.88,103.68 L155.52,103.68 L155.52,112.32 L146.88,112.32 L146.88,103.68 Z M155.52,103.68 L164.16,103.68 L164.16,112.32 L155.52,112.32 L155.52,103.68 Z M172.8,103.68 L181.44,103.68 L181.44,112.32 L172.8,112.32 L172.8,103.68 Z M190.08,103.68 L198.72,103.68 L198.72,112.32 L190.08,112.32 L190.08,103.68 Z M198.72,103.68 L207.36,103.68 L207.36,112.32 L198.72,112.32 L198.72,103.68 Z M207.36,103.68 L216,103.68 L216,112.32 L207.36,112.32 L207.36,103.68 Z M0,112.32 L8.64,112.32 L8.64,120.96 L0,120.96 L0,112.32 Z M8.64,112.32 L17.28,112.32 L17.28,120.96 L8.64,120.96 L8.64,112.32 Z M25.92,112.32 L34.56,112.32 L34.56,120.96 L25.92,120.96 L25.92,112.32 Z M34.56,112.32 L43.2,112.32 L43.2,120.96 L34.56,120.96 L34.56,112.32 Z M43.2,112.32 L51.84,112.32 L51.84,120.96 L43.2,120.96 L43.2,112.32 Z M77.76,112.32 L86.4,112.32 L86.4,120.96 L77.76,120.96 L77.76,112.32 Z M95.04,112.32 L103.68,112.32 L103.68,120.96 L95.04,120.96 L95.04,112.32 Z M103.68,112.32 L112.32,112.32 L112.32,120.96 L103.68,120.96 L103.68,112.32 Z M112.32,112.32 L120.96,112.32 L120.96,120.96 L112.32,120.96 L112.32,112.32 Z M138.24,112.32 L146.88,112.32 L146.88,120.96 L138.24,120.96 L138.24,112.32 Z M146.88,112.32 L155.52,112.32 L155.52,120.96 L146.88,120.96 L146.88,112.32 Z M164.16,112.32 L172.8,112.32 L172.8,120.96 L164.16,120.96 L164.16,112.32 Z M181.44,112.32 L190.08,112.32 L190.08,120.96 L181.44,120.96 L181.44,112.32 Z M198.72,112.32 L207.36,112.32 L207.36,120.96 L198.72,120.96 L198.72,112.32 Z M0,120.96 L8.64,120.96 L8.64,129.6 L0,129.6 L0,120.96 Z M17.28,120.96 L25.92,120.96 L25.92,129.6 L17.28,129.6 L17.28,120.96 Z M25.92,120.96 L34.56,120.96 L34.56,129.6 L25.92,129.6 L25.92,120.96 Z M43.2,120.96 L51.84,120.96 L51.84,129.6 L43.2,129.6 L43.2,120.96 Z M51.84,120.96 L60.48,120.96 L60.48,129.6 L51.84,129.6 L51.84,120.96 Z M69.12,120.96 L77.76,120.96 L77.76,129.6 L69.12,129.6 L69.12,120.96 Z M86.4,120.96 L95.04,120.96 L95.04,129.6 L86.4,129.6 L86.4,120.96 Z M129.6,120.96 L138.24,120.96 L138.24,129.6 L129.6,129.6 L129.6,120.96 Z M138.24,120.96 L146.88,120.96 L146.88,129.6 L138.24,129.6 L138.24,120.96 Z M155.52,120.96 L164.16,120.96 L164.16,129.6 L155.52,129.6 L155.52,120.96 Z M181.44,120.96 L190.08,120.96 L190.08,129.6 L181.44,129.6 L181.44,120.96 Z M198.72,120.96 L207.36,120.96 L207.36,129.6 L198.72,129.6 L198.72,120.96 Z M207.36,120.96 L216,120.96 L216,129.6 L207.36,129.6 L207.36,120.96 Z M0,129.6 L8.64,129.6 L8.64,138.24 L0,138.24 L0,129.6 Z M25.92,129.6 L34.56,129.6 L34.56,138.24 L25.92,138.24 L25.92,129.6 Z M34.56,129.6 L43.2,129.6 L43.2,138.24 L34.56,138.24 L34.56,129.6 Z M95.04,129.6 L103.68,129.6 L103.68,138.24 L95.04,138.24 L95.04,129.6 Z M103.68,129.6 L112.32,129.6 L112.32,138.24 L103.68,138.24 L103.68,129.6 Z M120.96,129.6 L129.6,129.6 L129.6,138.24 L120.96,138.24 L120.96,129.6 Z M138.24,129.6 L146.88,129.6 L146.88,138.24 L138.24,138.24 L138.24,129.6 Z M146.88,129.6 L155.52,129.6 L155.52,138.24 L146.88,138.24 L146.88,129.6 Z M172.8,129.6 L181.44,129.6 L181.44,138.24 L172.8,138.24 L172.8,129.6 Z M181.44,129.6 L190.08,129.6 L190.08,138.24 L181.44,138.24 L181.44,129.6 Z M207.36,129.6 L216,129.6 L216,138.24 L207.36,138.24 L207.36,129.6 Z M0,138.24 L8.64,138.24 L8.64,146.88 L0,146.88 L0,138.24 Z M17.28,138.24 L25.92,138.24 L25.92,146.88 L17.28,146.88 L17.28,138.24 Z M25.92,138.24 L34.56,138.24 L34.56,146.88 L25.92,146.88 L25.92,138.24 Z M34.56,138.24 L43.2,138.24 L43.2,146.88 L34.56,146.88 L34.56,138.24 Z M43.2,138.24 L51.84,138.24 L51.84,146.88 L43.2,146.88 L43.2,138.24 Z M51.84,138.24 L60.48,138.24 L60.48,146.88 L51.84,146.88 L51.84,138.24 Z M77.76,138.24 L86.4,138.24 L86.4,146.88 L77.76,146.88 L77.76,138.24 Z M86.4,138.24 L95.04,138.24 L95.04,146.88 L86.4,146.88 L86.4,138.24 Z M112.32,138.24 L120.96,138.24 L120.96,146.88 L112.32,146.88 L112.32,138.24 Z M120.96,138.24 L129.6,138.24 L129.6,146.88 L120.96,146.88 L120.96,138.24 Z M138.24,138.24 L146.88,138.24 L146.88,146.88 L138.24,146.88 L138.24,138.24 Z M146.88,138.24 L155.52,138.24 L155.52,146.88 L146.88,146.88 L146.88,138.24 Z M155.52,138.24 L164.16,138.24 L164.16,146.88 L155.52,146.88 L155.52,138.24 Z M164.16,138.24 L172.8,138.24 L172.8,146.88 L164.16,146.88 L164.16,138.24 Z M172.8,138.24 L181.44,138.24 L181.44,146.88 L172.8,146.88 L172.8,138.24 Z M190.08,138.24 L198.72,138.24 L198.72,146.88 L190.08,146.88 L190.08,138.24 Z M69.12,146.88 L77.76,146.88 L77.76,155.52 L69.12,155.52 L69.12,146.88 Z M77.76,146.88 L86.4,146.88 L86.4,155.52 L77.76,155.52 L77.76,146.88 Z M95.04,146.88 L103.68,146.88 L103.68,155.52 L95.04,155.52 L95.04,146.88 Z M112.32,146.88 L120.96,146.88 L120.96,155.52 L112.32,155.52 L112.32,146.88 Z M129.6,146.88 L138.24,146.88 L138.24,155.52 L129.6,155.52 L129.6,146.88 Z M138.24,146.88 L146.88,146.88 L146.88,155.52 L138.24,155.52 L138.24,146.88 Z M172.8,146.88 L181.44,146.88 L181.44,155.52 L172.8,155.52 L172.8,146.88 Z M181.44,146.88 L190.08,146.88 L190.08,155.52 L181.44,155.52 L181.44,146.88 Z M190.08,146.88 L198.72,146.88 L198.72,155.52 L190.08,155.52 L190.08,146.88 Z M0,155.52 L8.64,155.52 L8.64,164.16 L0,164.16 L0,155.52 Z M8.64,155.52 L17.28,155.52 L17.28,164.16 L8.64,164.16 L8.64,155.52 Z M17.28,155.52 L25.92,155.52 L25.92,164.16 L17.28,164.16 L17.28,155.52 Z M25.92,155.52 L34.56,155.52 L34.56,164.16 L25.92,164.16 L25.92,155.52 Z M34.56,155.52 L43.2,155.52 L43.2,164.16 L34.56,164.16 L34.56,155.52 Z M43.2,155.52 L51.84,155.52 L51.84,164.16 L43.2,164.16 L43.2,155.52 Z M51.84,155.52 L60.48,155.52 L60.48,164.16 L51.84,164.16 L51.84,155.52 Z M69.12,155.52 L77.76,155.52 L77.76,164.16 L69.12,164.16 L69.12,155.52 Z M77.76,155.52 L86.4,155.52 L86.4,164.16 L77.76,164.16 L77.76,155.52 Z M86.4,155.52 L95.04,155.52 L95.04,164.16 L86.4,164.16 L86.4,155.52 Z M112.32,155.52 L120.96,155.52 L120.96,164.16 L112.32,164.16 L112.32,155.52 Z M120.96,155.52 L129.6,155.52 L129.6,164.16 L120.96,164.16 L120.96,155.52 Z M138.24,155.52 L146.88,155.52 L146.88,164.16 L138.24,164.16 L138.24,155.52 Z M155.52,155.52 L164.16,155.52 L164.16,164.16 L155.52,164.16 L155.52,155.52 Z M172.8,155.52 L181.44,155.52 L181.44,164.16 L172.8,164.16 L172.8,155.52 Z M181.44,155.52 L190.08,155.52 L190.08,164.16 L181.44,164.16 L181.44,155.52 Z M190.08,155.52 L198.72,155.52 L198.72,164.16 L190.08,164.16 L190.08,155.52 Z M198.72,155.52 L207.36,155.52 L207.36,164.16 L198.72,164.16 L198.72,155.52 Z M207.36,155.52 L216,155.52 L216,164.16 L207.36,164.16 L207.36,155.52 Z M0,164.16 L8.64,164.16 L8.64,172.8 L0,172.8 L0,164.16 Z M51.84,164.16 L60.48,164.16 L60.48,172.8 L51.84,172.8 L51.84,164.16 Z M95.04,164.16 L103.68,164.16 L103.68,172.8 L95.04,172.8 L95.04,164.16 Z M103.68,164.16 L112.32,164.16 L112.32,172.8 L103.68,172.8 L103.68,164.16 Z M138.24,164.16 L146.88,164.16 L146.88,172.8 L138.24,172.8 L138.24,164.16 Z M172.8,164.16 L181.44,164.16 L181.44,172.8 L172.8,172.8 L172.8,164.16 Z M181.44,164.16 L190.08,164.16 L190.08,172.8 L181.44,172.8 L181.44,164.16 Z M198.72,164.16 L207.36,164.16 L207.36,172.8 L198.72,172.8 L198.72,164.16 Z M0,172.8 L8.64,172.8 L8.64,181.44 L0,181.44 L0,172.8 Z M17.28,172.8 L25.92,172.8 L25.92,181.44 L17.28,181.44 L17.28,172.8 Z M25.92,172.8 L34.56,172.8 L34.56,181.44 L25.92,181.44 L25.92,172.8 Z M34.56,172.8 L43.2,172.8 L43.2,181.44 L34.56,181.44 L34.56,172.8 Z M51.84,172.8 L60.48,172.8 L60.48,181.44 L51.84,181.44 L51.84,172.8 Z M69.12,172.8 L77.76,172.8 L77.76,181.44 L69.12,181.44 L69.12,172.8 Z M112.32,172.8 L120.96,172.8 L120.96,181.44 L112.32,181.44 L112.32,172.8 Z M120.96,172.8 L129.6,172.8 L129.6,181.44 L120.96,181.44 L120.96,172.8 Z M129.6,172.8 L138.24,172.8 L138.24,181.44 L129.6,181.44 L129.6,172.8 Z M138.24,172.8 L146.88,172.8 L146.88,181.44 L138.24,181.44 L138.24,172.8 Z M146.88,172.8 L155.52,172.8 L155.52,181.44 L146.88,181.44 L146.88,172.8 Z M155.52,172.8 L164.16,172.8 L164.16,181.44 L155.52,181.44 L155.52,172.8 Z M164.16,172.8 L172.8,172.8 L172.8,181.44 L164.16,181.44 L164.16,172.8 Z M172.8,172.8 L181.44,172.8 L181.44,181.44 L172.8,181.44 L172.8,172.8 Z M181.44,172.8 L190.08,172.8 L190.08,181.44 L181.44,181.44 L181.44,172.8 Z M190.08,172.8 L198.72,172.8 L198.72,181.44 L190.08,181.44 L190.08,172.8 Z M198.72,172.8 L207.36,172.8 L207.36,181.44 L198.72,181.44 L198.72,172.8 Z M0,181.44 L8.64,181.44 L8.64,190.08 L0,190.08 L0,181.44 Z M17.28,181.44 L25.92,181.44 L25.92,190.08 L17.28,190.08 L17.28,181.44 Z M25.92,181.44 L34.56,181.44 L34.56,190.08 L25.92,190.08 L25.92,181.44 Z M34.56,181.44 L43.2,181.44 L43.2,190.08 L34.56,190.08 L34.56,181.44 Z M51.84,181.44 L60.48,181.44 L60.48,190.08 L51.84,190.08 L51.84,181.44 Z M69.12,181.44 L77.76,181.44 L77.76,190.08 L69.12,190.08 L69.12,181.44 Z M77.76,181.44 L86.4,181.44 L86.4,190.08 L77.76,190.08 L77.76,181.44 Z M86.4,181.44 L95.04,181.44 L95.04,190.08 L86.4,190.08 L86.4,181.44 Z M95.04,181.44 L103.68,181.44 L103.68,190.08 L95.04,190.08 L95.04,181.44 Z M112.32,181.44 L120.96,181.44 L120.96,190.08 L112.32,190.08 L112.32,181.44 Z M155.52,181.44 L164.16,181.44 L164.16,190.08 L155.52,190.08 L155.52,181.44 Z M164.16,181.44 L172.8,181.44 L172.8,190.08 L164.16,190.08 L164.16,181.44 Z M172.8,181.44 L181.44,181.44 L181.44,190.08 L172.8,190.08 L172.8,181.44 Z M190.08,181.44 L198.72,181.44 L198.72,190.08 L190.08,190.08 L190.08,181.44 Z M198.72,181.44 L207.36,181.44 L207.36,190.08 L198.72,190.08 L198.72,181.44 Z M207.36,181.44 L216,181.44 L216,190.08 L207.36,190.08 L207.36,181.44 Z M0,190.08 L8.64,190.08 L8.64,198.72 L0,198.72 L0,190.08 Z M17.28,190.08 L25.92,190.08 L25.92,198.72 L17.28,198.72 L17.28,190.08 Z M25.92,190.08 L34.56,190.08 L34.56,198.72 L25.92,198.72 L25.92,190.08 Z M34.56,190.08 L43.2,190.08 L43.2,198.72 L34.56,198.72 L34.56,190.08 Z M51.84,190.08 L60.48,190.08 L60.48,198.72 L51.84,198.72 L51.84,190.08 Z M69.12,190.08 L77.76,190.08 L77.76,198.72 L69.12,198.72 L69.12,190.08 Z M120.96,190.08 L129.6,190.08 L129.6,198.72 L120.96,198.72 L120.96,190.08 Z M138.24,190.08 L146.88,190.08 L146.88,198.72 L138.24,198.72 L138.24,190.08 Z M164.16,190.08 L172.8,190.08 L172.8,198.72 L164.16,198.72 L164.16,190.08 Z M190.08,190.08 L198.72,190.08 L198.72,198.72 L190.08,198.72 L190.08,190.08 Z M207.36,190.08 L216,190.08 L216,198.72 L207.36,198.72 L207.36,190.08 Z M0,198.72 L8.64,198.72 L8.64,207.36 L0,207.36 L0,198.72 Z M51.84,198.72 L60.48,198.72 L60.48,207.36 L51.84,207.36 L51.84,198.72 Z M69.12,198.72 L77.76,198.72 L77.76,207.36 L69.12,207.36 L69.12,198.72 Z M77.76,198.72 L86.4,198.72 L86.4,207.36 L77.76,207.36 L77.76,198.72 Z M129.6,198.72 L138.24,198.72 L138.24,207.36 L129.6,207.36 L129.6,198.72 Z M138.24,198.72 L146.88,198.72 L146.88,207.36 L138.24,207.36 L138.24,198.72 Z M146.88,198.72 L155.52,198.72 L155.52,207.36 L146.88,207.36 L146.88,198.72 Z M164.16,198.72 L172.8,198.72 L172.8,207.36 L164.16,207.36 L164.16,198.72 Z M172.8,198.72 L181.44,198.72 L181.44,207.36 L172.8,207.36 L172.8,198.72 Z M181.44,198.72 L190.08,198.72 L190.08,207.36 L181.44,207.36 L181.44,198.72 Z M207.36,198.72 L216,198.72 L216,207.36 L207.36,207.36 L207.36,198.72 Z M0,207.36 L8.64,207.36 L8.64,216 L0,216 L0,207.36 Z M8.64,207.36 L17.28,207.36 L17.28,216 L8.64,216 L8.64,207.36 Z M17.28,207.36 L25.92,207.36 L25.92,216 L17.28,216 L17.28,207.36 Z M25.92,207.36 L34.56,207.36 L34.56,216 L25.92,216 L25.92,207.36 Z M34.56,207.36 L43.2,207.36 L43.2,216 L34.56,216 L34.56,207.36 Z M43.2,207.36 L51.84,207.36 L51.84,216 L43.2,216 L43.2,207.36 Z M51.84,207.36 L60.48,207.36 L60.48,216 L51.84,216 L51.84,207.36 Z M69.12,207.36 L77.76,207.36 L77.76,216 L69.12,216 L69.12,207.36 Z M86.4,207.36 L95.04,207.36 L95.04,216 L86.4,216 L86.4,207.36 Z M103.68,207.36 L112.32,207.36 L112.32,216 L103.68,216 L103.68,207.36 Z M112.32,207.36 L120.96,207.36 L120.96,216 L112.32,216 L112.32,207.36 Z M120.96,207.36 L129.6,207.36 L129.6,216 L120.96,216 L120.96,207.36 Z M164.16,207.36 L172.8,207.36 L172.8,216 L164.16,216 L164.16,207.36 Z M172.8,207.36 L181.44,207.36 L181.44,216 L172.8,216 L172.8,207.36 Z M181.44,207.36 L190.08,207.36 L190.08,216 L181.44,216 L181.44,207.36 Z M190.08,207.36 L198.72,207.36 L198.72,216 L190.08,216 L190.08,207.36 Z M198.72,207.36 L207.36,207.36 L207.36,216 L198.72,216 L198.72,207.36 Z M207.36,207.36 L216,207.36 L216,216 L207.36,216 L207.36,207.36 Z" id="Shape"></path>
                    </g>
                </g>
            </g>
        </g>
    </g>
</svg>