<?xml version="1.0" encoding="UTF-8"?>
<svg width="297px" height="185px" viewBox="0 0 297 185" version="1.1" xmlns="http://www.w3.org/2000/svg" xmlns:xlink="http://www.w3.org/1999/xlink">
    <!-- Generator: Sketch 49.2 (51160) - http://www.bohemiancoding.com/sketch -->
    <title>Group</title>
    <desc>Created with Sketch.</desc>
    <defs>
        <linearGradient x1="50%" y1="0%" x2="50%" y2="100%" id="linearGradient-1">
            <stop stop-color="#444444" offset="0%"></stop>
            <stop stop-color="#838383" offset="100%"></stop>
        </linearGradient>
        <path d="M176.277826,28.5625364 C172.254412,29.869547 167.954347,27.6824827 166.645158,23.6634254 C165.333791,19.6465464 167.516498,15.3421251 171.535556,14.0372929 C175.552435,12.7281041 179.850321,14.9173467 181.163867,18.936404 C182.468699,22.9467479 180.288169,27.2511692 176.277826,28.5625364 Z M202.402787,43.9678337 C203.32423,44.3642936 204.073583,45.1419648 204.422119,46.1723248 C205.058197,48.0914519 204.030015,50.1587068 202.117423,50.805677 C201.161127,51.1171812 200.167799,51.0213338 199.324778,50.6052688 L180.682451,42.0770252 L175.905328,46.7408743 L181.640925,52.0930824 C183.030713,53.3957362 183.109134,55.5893355 181.80648,56.9813017 C181.593002,57.2078502 181.372988,57.3886533 181.13337,57.5411379 C179.863391,58.3493061 178.170812,58.2469236 176.996681,57.2013152 L165.656187,46.1331145 L163.896079,47.7429157 L169.307103,53.0515568 L164.976541,57.3298379 L169.339778,73.9049095 C169.649104,75.168353 169.622964,76.2531718 168.923713,77.5623606 L157.942646,96.5510451 C157.559257,97.2132637 157.038631,97.7469597 156.428693,98.1325278 C155.030191,99.02783 153.180771,99.1323908 151.636321,98.2349103 C149.434008,96.9649317 148.972198,94.2419931 150.248711,92.0331454 L160.22338,74.7914983 L157.217256,64.1524328 L157.483014,73.1294166 C157.483014,74.7588231 156.637814,76.1899996 155.350409,77.0112379 C154.692547,77.4273029 153.927946,77.6908833 153.093637,77.7300936 L135.679901,78.5840072 C133.13123,78.7059948 130.968128,76.7411224 130.839605,74.1968086 C130.715439,71.6546731 132.610604,69.7747563 135.157096,69.6505903 L148.20324,69.0101552 L148.318692,55.0948499 C148.312157,54.9336519 148.342654,54.7680973 148.368794,54.6156127 C148.412361,52.6877722 149.139931,50.8536008 150.409909,49.4420294 L162.157755,37.6484379 C162.157755,37.6484379 164.098666,35.7162407 166.459998,33.9779167 C166.703974,33.7579032 166.954484,33.5531383 167.26381,33.4050104 C168.836579,32.3267267 170.522623,31.4270678 171.901519,31.2811183 C173.506963,31.1133853 174.898929,31.3943926 175.79641,31.8322411 L202.402787,43.9678337 Z M125.925245,89.8940048 C122.51177,89.8940048 118.806395,89.4910099 115.377671,88.2842035 C113.203676,87.5130673 111.935876,86.4478538 111.502384,85.0253907 C110.822739,82.7795109 112.493534,80.544523 113.966099,78.5752938 C114.767732,77.5035452 115.981074,75.8806738 115.795914,75.3034108 C115.739277,75.1291427 115.373314,74.826352 114.525935,74.5497014 C107.195785,72.2014392 97.1100204,77.8237627 97.0098162,77.8738648 C96.3584893,78.2420061 95.5394294,78.0154576 95.1734664,77.3684874 C94.8096818,76.7193388 95.0362303,75.9002789 95.6832005,75.5321376 C96.1384759,75.2772706 106.923491,69.2563088 115.353709,71.9901391 C117.01579,72.5216567 118.000405,73.3385383 118.362011,74.4799942 C118.967593,76.3882295 117.521168,78.3204267 116.122667,80.1938085 C115.085772,81.5792396 113.796188,83.3044935 114.079374,84.2346493 C114.240571,84.7683453 115.018243,85.2976845 116.272973,85.7398897 C125.487397,88.9943459 137.481397,85.7464248 137.601206,85.7072145 C138.320062,85.5133413 139.058523,85.933763 139.258931,86.6526188 C139.459339,87.3649395 139.036739,88.1099355 138.320062,88.3081654 C137.978061,88.4061912 132.490795,89.8940048 125.925245,89.8940048 Z M161.236313,5.75302461 C160.214907,5.75302461 159.386893,4.92501113 159.386893,3.90360474 C159.386893,2.88219834 160.214907,2.05418486 161.236313,2.05418486 C162.257719,2.05418486 163.085733,2.88219834 163.085733,3.90360474 C163.085733,4.92501113 162.257719,5.75302461 161.236313,5.75302461 Z M169.041344,10.6782759 C168.021141,10.6782759 167.194102,9.8512377 167.194102,8.83103438 C167.194102,7.81083105 168.021141,6.98379285 169.041344,6.98379285 C170.061547,6.98379285 170.888586,7.81083105 170.888586,8.83103438 C170.888586,9.8512377 170.061547,10.6782759 169.041344,10.6782759 Z M187.518116,9.58474377 C186.49671,9.58474377 185.668696,8.75673029 185.668696,7.73532389 C185.668696,6.7139175 186.49671,5.88590402 187.518116,5.88590402 C188.539522,5.88590402 189.367536,6.7139175 189.367536,7.73532389 C189.367536,8.75673029 188.539522,9.58474377 187.518116,9.58474377 Z M169.450874,3.69883976 C168.429468,3.69883976 167.601454,2.87082627 167.601454,1.84941988 C167.601454,0.828013483 168.429468,8.8817842e-16 169.450874,8.8817842e-16 C170.47228,8.8817842e-16 171.300294,0.828013483 171.300294,1.84941988 C171.300294,2.87082627 170.47228,3.69883976 169.450874,3.69883976 Z M176.290896,7.94008888 C175.270692,7.94008888 174.443654,7.11305067 174.443654,6.09284735 C174.443654,5.07264402 175.270692,4.24560582 176.290896,4.24560582 C177.311099,4.24560582 178.138137,5.07264402 178.138137,6.09284735 C178.138137,7.11305067 177.311099,7.94008888 176.290896,7.94008888 Z" id="path-2"></path>
        <filter x="-1.8%" y="-1.0%" width="103.6%" height="104.0%" filterUnits="objectBoundingBox" id="filter-3">
            <feOffset dx="0" dy="1" in="SourceAlpha" result="shadowOffsetOuter1"></feOffset>
            <feGaussianBlur stdDeviation="0.5" in="shadowOffsetOuter1" result="shadowBlurOuter1"></feGaussianBlur>
            <feColorMatrix values="0 0 0 0 1   0 0 0 0 1   0 0 0 0 1  0 0 0 1 0" type="matrix" in="shadowBlurOuter1"></feColorMatrix>
        </filter>
        <filter x="-2.3%" y="-1.5%" width="104.6%" height="105.1%" filterUnits="objectBoundingBox" id="filter-4">
            <feGaussianBlur stdDeviation="1.5" in="SourceAlpha" result="shadowBlurInner1"></feGaussianBlur>
            <feOffset dx="0" dy="0" in="shadowBlurInner1" result="shadowOffsetInner1"></feOffset>
            <feComposite in="shadowOffsetInner1" in2="SourceAlpha" operator="arithmetic" k2="-1" k3="1" result="shadowInnerInner1"></feComposite>
            <feColorMatrix values="0 0 0 0 0   0 0 0 0 0   0 0 0 0 0  0 0 0 0.5 0" type="matrix" in="shadowInnerInner1"></feColorMatrix>
        </filter>
    </defs>
    <g id="Page-1" stroke="none" stroke-width="1" fill="none" fill-rule="evenodd">
        <g id="Mobile" transform="translate(-96.000000, -53.000000)">
            <g id="Group" transform="translate(96.000000, 53.000000)">
                <text id="Whoa,-steady-there!" font-family="Lato-Hairline, Lato" font-size="36" font-weight="200" fill="#000000">
                    <tspan x="0.02" y="143">Whoa, steady there!</tspan>
                    <tspan x="50.4455" y="187" font-family="Lato-LightItalic, Lato" font-size="14" font-style="italic" font-weight="300">Great to see you’re enjoying yourself.</tspan>
                    <tspan x="16.1875" y="204" font-family="Lato-LightItalic, Lato" font-size="14" font-style="italic" font-weight="300">Please try holding you phone a litte more upright.</tspan>
                </text>
                <g id="Combined-Shape" fill-rule="nonzero">
                    <use fill="black" fill-opacity="1" filter="url(#filter-3)" xlink:href="#path-2"></use>
                    <use fill="url(#linearGradient-1)" fill-rule="evenodd" xlink:href="#path-2"></use>
                    <use fill="black" fill-opacity="1" filter="url(#filter-4)" xlink:href="#path-2"></use>
                </g>
            </g>
        </g>
    </g>
</svg>